<?xml version="1.0" standalone="no"?><!DOCTYPE svg PUBLIC "-//W3C//DTD SVG 1.1//EN" "http://www.w3.org/Graphics/SVG/1.1/DTD/svg11.dtd"><svg width="100%" height="100%" viewBox="0 0 512 512" version="1.1" xmlns="http://www.w3.org/2000/svg" xmlns:xlink="http://www.w3.org/1999/xlink" xml:space="preserve" style="fill-rule:evenodd;clip-rule:evenodd;stroke-linejoin:round;stroke-miterlimit:1.41421;"><g id="Layer 1"><path d="M509.44,256c0,139.971 -113.47,253.44 -253.44,253.44c-139.971,0 -253.441,-113.469 -253.441,-253.44c0,-139.971 113.47,-253.44 253.441,-253.44c139.97,0 253.44,113.469 253.44,253.44" style="fill:url(#_Radial1);fill-rule:nonzero;"/><path d="M381.675,297.758c16.934,-67.089 -23.864,-145.74 -93.15,-187.382c30.794,41.641 43.11,90.99 32.33,134.945c-0.768,3.857 -2.305,7.714 -3.849,11.571c-13.267,-9.182 -74.673,-47.036 -148.577,-121.838c-2.309,-2.315 40.029,60.15 86.989,109.499c-22.32,-13.108 -84.677,-57.838 -123.938,-94.079c4.617,7.712 10.775,15.423 16.934,23.906c33.099,42.414 75.441,93.303 127.018,132.633c-36.18,22.365 -86.988,23.902 -138.566,0c-13.086,-5.401 -23.864,-13.108 -35.411,-21.59c21.555,33.929 54.658,64 94.687,80.964c47.728,20.821 96.612,21.05 136.261,-3.081c16.934,-8.482 50.809,-17.74 69.287,17.733c3.849,10.026 13.085,-36.241 -21.559,-78.651c0.768,-1.545 0.768,-3.089 1.544,-4.633l0,0.003Z" style="fill:#fff;fill-rule:nonzero;"/></g><defs><radialGradient id="_Radial1" cx="0" cy="0" r="1" gradientUnits="userSpaceOnUse" gradientTransform="matrix(506.881,0,0,506.88,2.5594,256)"><stop offset="0%" style="stop-color:#8f008f;stop-opacity:1"/><stop offset="100%" style="stop-color:#ff0294;stop-opacity:1"/></radialGradient></defs></svg>